<svg width="997" height="1106" viewBox="0 0 997 1106" fill="none" xmlns="http://www.w3.org/2000/svg">
<path d="M707.696 320.182L706.998 320.822L707.696 321.222V320.182Z" fill="#021B36"/>
<path d="M707.707 321.201L706.998 320.802L707.707 320.182V321.201Z" fill="#021B36"/>
<path d="M719.121 320.081L718.424 319.682L466.804 553.968L718.219 784.468L719.11 783.955L933.654 660.299C1017.16 612.169 1017.16 491.855 933.654 443.725L719.11 320.07L719.121 320.081Z" fill="#021B36"/>
<path d="M719.104 320.08L933.636 443.731C1017.14 491.861 1017.14 612.167 933.636 660.298L719.104 783.949L718.22 784.479L466.804 553.982L718.441 319.682L719.104 320.08ZM476.799 553.894L719.104 776.077L930.275 654.416C1009.24 608.898 1009.23 495.132 930.275 449.613L719.325 328.04L476.799 553.894Z" fill="#021B36"/>
<path d="M11.1113 979.942C11.1113 1076.2 115.493 1136.35 199.001 1088.22L710.239 793.58L458.824 563.08L11.1113 979.942Z" fill="#021B36"/>
<path d="M710.254 793.578L199.021 1088.24L191.104 1092.4C109.061 1132.54 11.1113 1073.19 11.1113 979.939L458.838 563.08L710.254 793.578ZM18.0103 982.769C20.03 1072.13 117.44 1127.38 195.615 1082.32L698.8 792.295L458.838 572.279L18.0103 982.769Z" fill="#021B36"/>
<path d="M0 145.787V973.1L447.701 556.25L0 145.787Z" fill="#021B36"/>
<path d="M447.683 556.233L0 973.091V145.787L447.683 556.233ZM6.81055 957.436L437.688 556.277L6.81055 161.221V957.436Z" fill="#021B36"/>
<path d="M706.999 311.696L195.568 16.9395C112.071 -31.1906 7.68945 28.972 7.68945 125.232V135.531L455.391 545.983L707.011 311.696H706.999Z" fill="#021B36"/>
<path d="M7.68945 125.237C7.68945 28.9814 112.06 -31.1862 195.555 16.9323L707.011 311.685L455.374 545.983L7.68945 135.541V125.237ZM14.5 132.489L455.329 536.696L695.645 312.967L192.194 22.8141C113.209 -22.7148 14.5 34.2237 14.5 125.237V132.489Z" fill="#021B36"/>
</svg>
